<?xml version="1.0" encoding="UTF-8"?>
<svg version="1.1" xmlns="http://www.w3.org/2000/svg" width="247" height="204">
<path d="M0 0 C81.51 0 163.02 0 247 0 C247 67.32 247 134.64 247 204 C165.49 204 83.98 204 0 204 C0 136.68 0 69.36 0 0 Z " fill="#FDFDFD" transform="translate(0,0)"/>
<path d="M0 0 C8.61194323 6.72904525 12.00148337 16.98784116 13.78857422 27.43847656 C16.07659489 46.53673649 14.72364377 66.35674128 11.55566406 85.24853516 C11.05908199 88.4905067 10.73490006 91.73700821 10.43896484 95.00268555 C9.42374817 106.06587064 7.83991389 116.63494904 6.1796875 127.703125 C-12.3003125 127.703125 -30.7803125 127.703125 -49.8203125 127.703125 C-48.39148808 123.41665175 -47.06983138 120.05247613 -45.0078125 116.140625 C-42.33820962 110.89191425 -40.13737054 105.59720212 -38.09375 100.078125 C-37.24632218 97.83218132 -36.35550373 95.60212546 -35.421875 93.390625 C-29.63397748 79.67116422 -22.64421768 63.06304842 -22.6953125 48.015625 C-22.69273437 47.24863281 -22.69015625 46.48164062 -22.6875 45.69140625 C-22.69662317 43.62833164 -22.69662317 43.62833164 -23.8203125 41.703125 C-28.89592904 41.28387998 -28.89592904 41.28387998 -33.35546875 43.44140625 C-52.42723489 60.94148961 -59.6618634 97.74360904 -64.9453125 121.86328125 C-65.8203125 125.703125 -65.8203125 125.703125 -66.8203125 127.703125 C-80.6803125 127.703125 -94.5403125 127.703125 -108.8203125 127.703125 C-108.8203125 101.633125 -108.8203125 75.563125 -108.8203125 48.703125 C-115.7503125 48.703125 -122.6803125 48.703125 -129.8203125 48.703125 C-129.8203125 74.773125 -129.8203125 100.843125 -129.8203125 127.703125 C-142.6903125 127.703125 -155.5603125 127.703125 -168.8203125 127.703125 C-168.8203125 88.763125 -168.8203125 49.823125 -168.8203125 9.703125 C-136.4803125 9.703125 -104.1403125 9.703125 -70.8203125 9.703125 C-70.3253125 29.503125 -70.3253125 29.503125 -69.8203125 49.703125 C-68.5003125 46.403125 -67.1803125 43.103125 -65.8203125 39.703125 C-64.45042362 36.98394708 -63.07389704 34.34237452 -61.5703125 31.703125 C-61.18262695 31.01887451 -60.79494141 30.33462402 -60.39550781 29.62963867 C-52.06353498 15.25207042 -40.19953234 2.20233121 -23.97265625 -2.875 C-15.79815635 -4.47726132 -7.25423648 -4.3287575 0 0 Z " fill="#020202" transform="translate(207.8203125,30.296875)"/>
<path d="M0 0 C0 1.32 0 2.64 0 4 C-1.8984375 5.8515625 -1.8984375 5.8515625 -4.375 7.625 C-7.83596423 10.13721431 -7.83596423 10.13721431 -11 13 C-11.66 12.34 -12.32 11.68 -13 11 C-4.00842697 0 -4.00842697 0 0 0 Z " fill="#1A1A1A" transform="translate(169,36)"/>
<path d="M0 0 C0.99 0.33 1.98 0.66 3 1 C2.01 1.495 2.01 1.495 1 2 C1.33 2.66 1.66 3.32 2 4 C-2.95 6.97 -2.95 6.97 -8 10 C-8.66 9.34 -9.32 8.68 -10 8 C-9.67 7.01 -9.34 6.02 -9 5 C-7.00882592 4.30741771 -5.0078864 3.64252365 -3 3 C-1.16310524 1.50113129 -1.16310524 1.50113129 0 0 Z " fill="#E9E9E9" transform="translate(173,28)"/>
<path d="M0 0 C0.99 0 1.98 0 3 0 C2.7452486 1.31571603 2.47065859 2.62760376 2.1875 3.9375 C2.03667969 4.66839844 1.88585937 5.39929688 1.73046875 6.15234375 C1.48941406 6.76207031 1.24835938 7.37179688 1 8 C0.01 8.33 -0.98 8.66 -2 9 C-2.66 7.68 -3.32 6.36 -4 5 C-3.34 4.01 -2.68 3.02 -2 2 C-1.34 2 -0.68 2 0 2 C0 1.34 0 0.68 0 0 Z " fill="#F2F2F2" transform="translate(180,94)"/>
<path d="M0 0 C0.66 0 1.32 0 2 0 C3 3 3 3 2.0625 5.1875 C1.5365625 6.0846875 1.5365625 6.0846875 1 7 C0.01 6.67 -0.98 6.34 -2 6 C-1.34 4.02 -0.68 2.04 0 0 Z " fill="#070707" transform="translate(147,123)"/>
<path d="M0 0 C0.33 0.66 0.66 1.32 1 2 C1.99 1.67 2.98 1.34 4 1 C2.98823563 4.40320742 2.35156418 5.75725331 -0.625 7.8125 C-1.40875 8.204375 -2.1925 8.59625 -3 9 C-2.01 6.03 -1.02 3.06 0 0 Z " fill="#151515" transform="translate(139,76)"/>
<path d="M0 0 C2 3.75 2 3.75 2 6 C1.01 6.495 1.01 6.495 0 7 C-0.72159424 8.64363134 -1.39351421 10.31050386 -2 12 C-3.15957207 8.52128379 -2.77456651 7.65780355 -1.5625 4.3125 C-1.13130859 3.10013672 -1.13130859 3.10013672 -0.69140625 1.86328125 C-0.46324219 1.24839844 -0.23507813 0.63351563 0 0 Z " fill="#B7B7B7" transform="translate(149,126)"/>
<path d="M0 0 C0.66 0.99 1.32 1.98 2 3 C1.67 3.66 1.34 4.32 1 5 C1.66 5.33 2.32 5.66 3 6 C1.02 6.99 1.02 6.99 -1 8 C-2.2077558 4.37673261 -1.54311128 3.35853631 0 0 Z " fill="#DFDFDF" transform="translate(165,85)"/>
<path d="M0 0 C-0.66 1.32 -1.32 2.64 -2 4 C-2.99 4 -3.98 4 -5 4 C-5 3.01 -5 2.02 -5 1 C-3 0 -3 0 0 0 Z " fill="#EAEAEA" transform="translate(161,41)"/>
</svg>
